<mxfile host="Electron" modified="2024-04-24T10:52:08.284Z" agent="Mozilla/5.0 (Windows NT 10.0; Win64; x64) AppleWebKit/537.36 (KHTML, like Gecko) draw.io/24.2.5 Chrome/120.0.6099.109 Electron/28.1.0 Safari/537.36" etag="3iiAapRI2lI4EgqDkSZv" version="24.2.5" type="device">
  <diagram name="Page-1" id="vOXC9VEUfJLqcLpqnig4">
    <mxGraphModel dx="1221" dy="823" grid="1" gridSize="10" guides="1" tooltips="1" connect="1" arrows="1" fold="1" page="1" pageScale="1" pageWidth="850" pageHeight="1100" math="0" shadow="0">
      <root>
        <mxCell id="0" />
        <mxCell id="1" parent="0" />
        <mxCell id="Kzb39lo3-cOy7N5ZjCNh-3" value="" style="rounded=0;whiteSpace=wrap;html=1;" parent="1" vertex="1">
          <mxGeometry x="720" y="210" width="300" height="470" as="geometry" />
        </mxCell>
        <mxCell id="WABzdhjK0j0SPu53DI3O-1" value="Product" style="swimlane;whiteSpace=wrap;html=1;startSize=40;" parent="1" vertex="1">
          <mxGeometry x="780" y="245" width="160" height="115" as="geometry" />
        </mxCell>
        <mxCell id="KdBcJ6rWrjz-ZZu5M0f1-6" style="edgeStyle=orthogonalEdgeStyle;rounded=0;orthogonalLoop=1;jettySize=auto;html=1;exitX=0.5;exitY=0;exitDx=0;exitDy=0;entryX=0.5;entryY=1;entryDx=0;entryDy=0;" edge="1" parent="1" source="WABzdhjK0j0SPu53DI3O-3" target="WABzdhjK0j0SPu53DI3O-1">
          <mxGeometry relative="1" as="geometry" />
        </mxCell>
        <mxCell id="WABzdhjK0j0SPu53DI3O-3" value="ConcreteProduct" style="swimlane;whiteSpace=wrap;html=1;startSize=40;" parent="1" vertex="1">
          <mxGeometry x="780" y="450" width="160" height="120" as="geometry" />
        </mxCell>
        <mxCell id="KdBcJ6rWrjz-ZZu5M0f1-11" style="edgeStyle=orthogonalEdgeStyle;rounded=0;orthogonalLoop=1;jettySize=auto;html=1;exitX=0.5;exitY=1;exitDx=0;exitDy=0;entryX=1;entryY=0.75;entryDx=0;entryDy=0;" edge="1" parent="1" source="WABzdhjK0j0SPu53DI3O-9" target="WABzdhjK0j0SPu53DI3O-11">
          <mxGeometry relative="1" as="geometry" />
        </mxCell>
        <mxCell id="WABzdhjK0j0SPu53DI3O-9" value="flyweight_pattern" style="swimlane;whiteSpace=wrap;html=1;startSize=40;" parent="1" vertex="1">
          <mxGeometry x="1370" y="200" width="160" height="100" as="geometry" />
        </mxCell>
        <mxCell id="WABzdhjK0j0SPu53DI3O-10" value="+ main() : void&lt;div&gt;&lt;br/&gt;&lt;/div&gt;" style="text;html=1;align=center;verticalAlign=middle;resizable=0;points=[];autosize=1;strokeColor=none;fillColor=none;" parent="WABzdhjK0j0SPu53DI3O-9" vertex="1">
          <mxGeometry x="25" y="50" width="100" height="40" as="geometry" />
        </mxCell>
        <mxCell id="WABzdhjK0j0SPu53DI3O-11" value="ProductFactory" style="swimlane;whiteSpace=wrap;html=1;startSize=40;" parent="1" vertex="1">
          <mxGeometry x="1130" y="380" width="167.5" height="130" as="geometry" />
        </mxCell>
        <mxCell id="WABzdhjK0j0SPu53DI3O-12" value="- products : HashMap" style="text;html=1;align=center;verticalAlign=middle;resizable=0;points=[];autosize=1;strokeColor=none;fillColor=none;" parent="WABzdhjK0j0SPu53DI3O-11" vertex="1">
          <mxGeometry x="12.5" y="40" width="140" height="30" as="geometry" />
        </mxCell>
        <mxCell id="4CQCkP5W3C9SiWXQ2WWw-24" value="+getProduct() :void" style="text;html=1;align=center;verticalAlign=middle;resizable=0;points=[];autosize=1;strokeColor=none;fillColor=none;" parent="WABzdhjK0j0SPu53DI3O-11" vertex="1">
          <mxGeometry x="17.5" y="85" width="130" height="30" as="geometry" />
        </mxCell>
        <mxCell id="WABzdhjK0j0SPu53DI3O-14" value="&amp;lt;&amp;lt;Interface&amp;gt;&amp;gt;" style="text;html=1;align=center;verticalAlign=middle;resizable=0;points=[];autosize=1;strokeColor=none;fillColor=none;" parent="1" vertex="1">
          <mxGeometry x="770" y="210" width="100" height="30" as="geometry" />
        </mxCell>
        <mxCell id="WABzdhjK0j0SPu53DI3O-17" value="asks" style="text;html=1;align=center;verticalAlign=middle;resizable=0;points=[];autosize=1;strokeColor=none;fillColor=none;" parent="1" vertex="1">
          <mxGeometry x="1360" y="440" width="50" height="30" as="geometry" />
        </mxCell>
        <mxCell id="WABzdhjK0j0SPu53DI3O-18" value="creates" style="text;html=1;align=center;verticalAlign=middle;resizable=0;points=[];autosize=1;strokeColor=none;fillColor=none;" parent="1" vertex="1">
          <mxGeometry x="1040" y="450" width="60" height="30" as="geometry" />
        </mxCell>
        <mxCell id="KdBcJ6rWrjz-ZZu5M0f1-2" value="implements" style="text;html=1;align=center;verticalAlign=middle;resizable=0;points=[];autosize=1;strokeColor=none;fillColor=none;" vertex="1" parent="1">
          <mxGeometry x="770" y="380" width="80" height="30" as="geometry" />
        </mxCell>
        <mxCell id="KdBcJ6rWrjz-ZZu5M0f1-7" value="+displayInfo() :void&lt;br&gt;+setserialNumber() :void&lt;br&gt;+setLocation() :void" style="text;html=1;align=center;verticalAlign=middle;resizable=0;points=[];autosize=1;strokeColor=none;fillColor=none;" vertex="1" parent="1">
          <mxGeometry x="780" y="290" width="150" height="60" as="geometry" />
        </mxCell>
        <mxCell id="KdBcJ6rWrjz-ZZu5M0f1-8" value="+displayInfo() :void&lt;br&gt;+setserialNumber() :void&lt;br&gt;+setLocation() :void" style="text;html=1;align=center;verticalAlign=middle;resizable=0;points=[];autosize=1;strokeColor=none;fillColor=none;" vertex="1" parent="1">
          <mxGeometry x="785" y="500" width="150" height="60" as="geometry" />
        </mxCell>
        <mxCell id="KdBcJ6rWrjz-ZZu5M0f1-12" value="" style="endArrow=none;html=1;rounded=0;entryX=0;entryY=0.5;entryDx=0;entryDy=0;exitX=1;exitY=0.5;exitDx=0;exitDy=0;" edge="1" parent="1" source="WABzdhjK0j0SPu53DI3O-11" target="WABzdhjK0j0SPu53DI3O-11">
          <mxGeometry width="50" height="50" relative="1" as="geometry">
            <mxPoint x="910" y="450" as="sourcePoint" />
            <mxPoint x="960" y="400" as="targetPoint" />
          </mxGeometry>
        </mxCell>
        <mxCell id="KdBcJ6rWrjz-ZZu5M0f1-13" style="edgeStyle=orthogonalEdgeStyle;rounded=0;orthogonalLoop=1;jettySize=auto;html=1;exitX=0;exitY=0.75;exitDx=0;exitDy=0;entryX=0.994;entryY=0.569;entryDx=0;entryDy=0;entryPerimeter=0;" edge="1" parent="1" source="WABzdhjK0j0SPu53DI3O-11" target="Kzb39lo3-cOy7N5ZjCNh-3">
          <mxGeometry relative="1" as="geometry" />
        </mxCell>
      </root>
    </mxGraphModel>
  </diagram>
</mxfile>
